{
  "asset": {
    "version": "2.0",
    "generator": "THREE.GLTFExporter"
  },
  "scenes": [
    {
      "name": "Scene1",
      "nodes": [
        0,
        1,
        2,
        3,
        5
      ]
    }
  ],
  "scene": 0,
  "nodes": [
    {
      "matrix": [
        -0.5589055821583513,
        5.551115123125783e-17,
        0.8292313008034821,
        0,
        0.37084351153343237,
        0.8944271909999159,
        0.2499501749420333,
        0,
        -0.7416870230668647,
        0.447213595499958,
        -0.49990034988406684,
        0,
        -663.3850406427856,
        400,
        -447.12446572668074,
        1
      ],
      "name": "PerspectiveCamera",
      "camera": 0
    },
    {
      "matrix": [
        1,
        0,
        0,
        0,
        0,
        1,
        0,
        0,
        0,
        0,
        1,
        0,
        -200,
        0,
        200,
        1
      ],
      "name": "Icosahedron",
      "mesh": 0
    },
    {
      "name": "OrthographicCamera",
      "camera": 1
    },
    {
      "matrix": [
        1,
        0,
        0,
        0,
        0,
        1,
        0,
        0,
        0,
        0,
        1,
        0,
        200,
        0,
        400,
        1
      ],
      "mesh": 1
    },
    {
      "name": "Mesh_Mesh_head_geo.001_lambert2SG.001",
      "mesh": 2
    },
    {
      "matrix": [
        1.5,
        0,
        0,
        0,
        0,
        1.5,
        0,
        0,
        0,
        0,
        1.5,
        0,
        200,
        -40,
        -200,
        1
      ],
      "children": [
        4
      ]
    }
  ],
  "cameras": [
    {
      "type": "perspective",
      "perspective": {
        "aspectRatio": 2.2325581395348837,
        "yfov": 0.7853981633974483,
        "zfar": 2000,
        "znear": 1
      },
      "name": "PerspectiveCamera"
    },
    {
      "type": "orthographic",
      "orthographic": {
        "xmag": 982,
        "ymag": 688,
        "zfar": 10,
        "znear": 0.1
      },
      "name": "OrthographicCamera"
    }
  ],
  "bufferViews": [
    {
      "buffer": 0,
      "byteOffset": 0,
      "byteLength": 48,
      "target": 34962,
      "byteStride": 12
    },
    {
      "buffer": 0,
      "byteOffset": 48,
      "byteLength": 48,
      "target": 34962,
      "byteStride": 12
    },
    {
      "buffer": 0,
      "byteOffset": 96,
      "byteLength": 32,
      "target": 34962,
      "byteStride": 8
    },
    {
      "buffer": 0,
      "byteOffset": 128,
      "byteLength": 12,
      "target": 34963
    },
    {
      "buffer": 0,
      "byteOffset": 140,
      "byteLength": 12600,
      "target": 34962,
      "byteStride": 12
    },
    {
      "buffer": 0,
      "byteOffset": 12740,
      "byteLength": 8400,
      "target": 34962,
      "byteStride": 8
    },
    {
      "buffer": 0,
      "byteOffset": 21140,
      "byteLength": 12600,
      "target": 34962,
      "byteStride": 12
    },
    {
      "buffer": 0,
      "byteOffset": 33740,
      "byteLength": 11760,
      "target": 34963
    },
    {
      "buffer": 0,
      "byteOffset": 45500,
      "byteLength": 581760,
      "target": 34962,
      "byteStride": 12
    },
    {
      "buffer": 0,
      "byteOffset": 627260,
      "byteLength": 581760,
      "target": 34962,
      "byteStride": 12
    }
  ],
  "buffers": [
    {
      "byteLength": 1209020,
      "uri": "data:application/octet-stream;base64,"
    }
  ],
  "accessors": [
    {
      "bufferView": 0,
      "componentType": 5126,
      "count": 4,
      "max": [
        125,
        125,
        0
      ],
      "min": [
        -125,
        -125,
        0
      ],
      "type": "VEC3"
    },
    {
      "bufferView": 1,
      "componentType": 5126,
      "count": 4,
      "max": [
        0,
        0,
        1
      ],
      "min": [
        0,
        0,
        1
      ],
      "type": "VEC3"
    },
    {
      "bufferView": 2,
      "componentType": 5126,
      "count": 4,
      "max": [
        1,
        1
      ],
      "min": [
        0,
        0
      ],
      "type": "VEC2"
    },
    {
      "bufferView": 3,
      "componentType": 5123,
      "count": 6,
      "max": [
        3
      ],
      "min": [
        0
      ],
      "type": "SCALAR"
    },
    {
      "bufferView": 4,
      "componentType": 5126,
      "count": 1050,
      "max": [
        61.477210998535156,
        88,
        61.477210998535156
      ],
      "min": [
        -61.477210998535156,
        -10,
        -61.477210998535156
      ],
      "type": "VEC3"
    },
    {
      "bufferView": 5,
      "componentType": 5126,
      "count": 1050,
      "max": [
        1,
        1
      ],
      "min": [
        0,
        0
      ],
      "type": "VEC2"
    },
    {
      "bufferView": 6,
      "componentType": 5126,
      "count": 1050,
      "max": [
        0.9998930096626282,
        0.8282667398452759,
        0.9998930096626282
      ],
      "min": [
        -0.9998930096626282,
        -0.8289012908935547,
        -0.9998930096626282
      ],
      "type": "VEC3"
    },
    {
      "bufferView": 7,
      "componentType": 5123,
      "count": 5880,
      "max": [
        1049
      ],
      "min": [
        0
      ],
      "type": "SCALAR"
    },
    {
      "bufferView": 8,
      "componentType": 5126,
      "count": 48480,
      "max": [
        28.16547393798828,
        75.8121337890625,
        26.041017532348633
      ],
      "min": [
        -28.17205238342285,
        -2.8307740688323975,
        -31.3985595703125
      ],
      "type": "VEC3"
    },
    {
      "bufferView": 9,
      "componentType": 5126,
      "count": 48480,
      "max": [
        0.9999390244483948,
        0.9999690055847168,
        0.9996340274810791
      ],
      "min": [
        -0.9999390244483948,
        -0.9959719777107239,
        -0.9999690055847168
      ],
      "type": "VEC3"
    }
  ],
  "materials": [
    {
      "pbrMetallicRoughness": {
        "baseColorFactor": [
          1,
          1,
          1,
          0.8
        ],
        "metallicFactor": 0,
        "roughnessFactor": 0.9,
        "baseColorTexture": {
          "index": 0
        }
      },
      "extensions": {
        "KHR_materials_unlit": {}
      }
    },
    {
      "pbrMetallicRoughness": {
        "baseColorFactor": [
          1,
          1,
          0,
          1
        ],
        "metallicFactor": 0.5,
        "roughnessFactor": 0.5
      },
      "doubleSided": true
    },
    {
      "pbrMetallicRoughness": {
        "metallicFactor": 0.5,
        "roughnessFactor": 0.5
      },
      "name": "lambert2SG.001"
    }
  ],
  "textures": [
    {
      "sampler": 0,
      "source": 0
    }
  ],
  "samplers": [
    {
      "magFilter": 9729,
      "minFilter": 9987,
      "wrapS": 10497,
      "wrapT": 10497
    }
  ],
  "images": [
    {
      "mimeType": "image/png",
      "uri": "data:image/png;base64,"
    }
  ],
  "meshes": [
    {
      "primitives": [
        {
          "mode": 4,
          "attributes": {
            "POSITION": 0,
            "NORMAL": 1,
            "TEXCOORD_0": 2
          },
          "indices": 3,
          "material": 0
        }
      ]
    },
    {
      "primitives": [
        {
          "mode": 4,
          "attributes": {
            "POSITION": 4,
            "TEXCOORD_0": 5,
            "NORMAL": 6
          },
          "indices": 7,
          "material": 1
        }
      ]
    },
    {
      "primitives": [
        {
          "mode": 4,
          "attributes": {
            "POSITION": 8,
            "NORMAL": 9
          },
          "material": 2
        }
      ]
    }
  ],
  "extensionsUsed": [
    "KHR_materials_unlit"
  ]
}